<svg width="131" height="122" viewBox="0 0 131 122" fill="none" xmlns="http://www.w3.org/2000/svg">
<g clip-path="url(#clip0_935_265)">
<path d="M111.06 99.2302C110.76 99.0602 101.26 95.5302 92.8598 92.4102L69.2498 107.38C66.7598 108.96 63.5898 108.96 61.0998 107.38L37.4898 92.4102C29.0898 95.5202 19.5898 99.0602 19.2898 99.2302C19.2898 99.2302 10.7698 101.94 0.00976562 121.93H130.33C119.57 101.95 111.05 99.2302 111.05 99.2302H111.06Z" fill="#C0B6E0"/>
<path d="M62.8799 66.5598C62.5999 66.5598 62.3199 66.4998 62.0499 66.3598C61.1499 65.8998 60.7999 64.7998 61.2599 63.9098C64.0999 58.3498 70.9399 56.1398 76.4999 58.9798C77.3999 59.4398 77.7499 60.5398 77.2899 61.4298C76.8299 62.3298 75.7299 62.6798 74.8399 62.2198C71.0699 60.2898 66.4299 61.7898 64.4999 65.5598C64.1799 66.1898 63.5399 66.5498 62.8799 66.5498V66.5598Z" fill="#C0B6E0"/>
<path d="M112.7 54.42C110.15 44.76 109.23 46.49 100.66 27.27C95.54 15.79 91.58 11.17 89.22 9.32C89.22 9.32 80.57 0 65.09 0C49.61 0 41.75 8.85 41.75 8.85C39.51 10.35 35.29 14.68 29.68 27.27C21.11 46.49 20.19 44.76 17.64 54.42C15.19 63.72 18.1 80.58 36.07 84.93C36.79 85.1 37.35 84.33 36.94 83.72C36.17 82.56 35.25 80.83 34.77 78.67C34.77 78.67 41.33 87.54 50.71 89.09L52.94 75.31C47.67 71.69 43.91 67.11 42.68 60.87C42.35 59.19 42.07 57.5 41.82 55.81C36.65 57.56 28 42.29 32.54 38.11C36.42 34.55 39.23 38.59 40.19 40.33C40.19 40.29 40.19 40.24 40.19 40.2C42.37 37.8 44.79 34.67 46.72 30.85C51.76 30.92 59.53 30.19 68.17 26.14C73.5 23.64 77.22 21 79.85 18.62C80.3 21.82 81.14 25.47 82.72 29.1C84.75 33.74 87.61 37.49 90.13 40.24C90.13 40.26 90.13 40.29 90.13 40.32C91.1 38.58 93.91 34.54 97.78 38.1C102.32 42.28 93.67 57.55 88.5 55.8C88.24 57.48 87.97 59.18 87.64 60.86C86.42 67.1 82.66 71.68 77.38 75.3L79.61 89.08C89 87.53 95.55 78.66 95.55 78.66C95.07 80.82 94.15 82.55 93.38 83.71C92.97 84.33 93.53 85.1 94.25 84.92C112.22 80.57 115.13 63.71 112.68 54.41L112.7 54.42Z" fill="#C0B6E0"/>
</g>
<defs>
<clipPath id="clip0_935_265">
<rect width="130.33" height="121.93" fill="white"/>
</clipPath>
</defs>
</svg>
